<svg width="91" height="79" viewBox="0 0 91 79" fill="none" xmlns="http://www.w3.org/2000/svg">
<path d="M88.7985 50.6251L88.7984 50.6248C84.6038 40.0585 74.1499 13.7965 72.4213 10.0068C71.8575 8.76723 71.05 8.00881 70.1488 7.58035C69.2528 7.15436 68.2821 7.06278 67.3978 7.12312C66.513 7.1835 65.7019 7.39678 65.1143 7.59344C64.8198 7.69199 64.5798 7.78692 64.4127 7.85754C64.3291 7.89287 64.2637 7.92216 64.2187 7.94283C64.1962 7.95318 64.1788 7.96137 64.1668 7.96709L64.1529 7.97378L64.149 7.97567L64.1479 7.97623L64.1475 7.97641C64.1474 7.97648 64.1472 7.97653 64.2578 8.20078L64.1472 7.97653L63.9647 8.06647L64.0157 8.26344L77.1219 58.885L77.1862 59.1334L77.4328 59.0627L85.9174 56.6297C87.1256 56.2833 88.1296 55.4322 88.6795 54.2861L88.6799 54.2854C89.2277 53.1341 89.2679 51.8124 88.7985 50.6251Z" fill="#F9F9F9" stroke="#3D3C3C" stroke-width="0.5"/>
<path d="M7.49446 26.0421L7.49438 26.0421L4.65848 31.5935L4.41676 31.6573L4.41683 31.6576L15.25 72.6928C15.25 72.6928 15.25 72.6928 15.25 72.6929C15.9887 75.4923 18.8572 77.1619 21.6565 76.4233L81.5277 60.616L81.5279 60.616C83.3299 60.1388 84.3885 58.285 83.8808 56.4913L70.6107 9.68106C70.0734 7.78434 68.0696 6.70972 66.191 7.30755L66.1908 7.30762L7.49446 26.0421Z" fill="#F9F9F9" stroke="#3D3C3C" stroke-width="0.5"/>
<path d="M18.1164 72.7914C17.2957 73.0145 16.4711 72.4579 16.3696 71.6145C15.6771 66.0292 13.0439 46.8883 7.82056 31.8641C7.58226 31.182 7.95373 30.4349 8.64069 30.2135L65.3501 11.9755C66.1272 11.7283 66.9614 12.148 67.2143 12.9236C69.2964 19.2697 77.7825 45.4386 79.2934 55.176C79.3834 55.7664 79.0158 56.3355 78.4375 56.4891L18.1164 72.7914Z" fill="white"/>
<path d="M44.0719 30.5482L45.1634 34.6952C45.3332 35.3298 45.9836 35.7046 46.615 35.5235L50.8497 34.3337C51.4659 34.1631 51.8326 33.5271 51.6661 32.9038L50.5131 28.5426C50.3369 27.8854 49.651 27.5146 49.0051 27.7304L44.8246 29.1304C44.248 29.3324 43.9134 29.953 44.0719 30.5482Z" fill="#F0EFEF"/>
<path d="M30.7904 40.0242L35.025 38.8344C35.6412 38.6638 36.0063 38.0222 35.8414 37.4045L34.8631 33.6948C34.6884 33.0433 34.0082 32.6709 33.3663 32.8794L29.1761 34.2456C28.585 34.4395 28.2504 35.0602 28.4049 35.6626L29.3387 39.1959C29.5085 39.8305 30.1646 40.2037 30.7904 40.0242Z" fill="#F0EFEF"/>
<path d="M39.7588 57.3243L35.7278 58.4375C35.0553 58.6242 34.6508 59.3198 34.8335 59.9995L35.8344 63.7881C36.0099 64.4638 36.6942 64.8716 37.3732 64.7074L41.4413 63.724C42.1372 63.5549 42.5627 62.8472 42.3767 62.1562L41.3442 58.2363C41.1567 57.5397 40.4482 57.1327 39.7588 57.3243Z" fill="#F0EFEF"/>
<path d="M34.3814 64.1009L33.4047 60.3969C33.2293 59.7211 32.528 59.3182 31.8555 59.5049L27.7795 60.631C27.1183 60.8145 26.7218 61.4956 26.9012 62.1641L27.8464 65.7368C28.0243 66.3997 28.6941 66.7994 29.3561 66.6401L33.4637 65.6453C34.1483 65.4795 34.5658 64.7863 34.3814 64.1009Z" fill="#F0EFEF"/>
<path d="M29.9721 47.3792L29.1676 44.3397C28.976 43.6076 28.2111 43.1741 27.4838 43.3826L23.6067 44.5005C22.902 44.7025 22.4846 45.4384 22.6754 46.1464L23.4411 49.0506C23.6279 49.7658 24.3614 50.1961 25.0798 50.0206L28.9957 49.0381C29.7238 48.8537 30.1621 48.1057 29.9721 47.3792Z" fill="#F0EFEF"/>
<path d="M32.3041 56.2162L31.0744 51.5658C30.9022 50.9014 30.2195 50.4992 29.5534 50.6658L25.5473 51.6742C24.8192 51.8586 24.3736 52.6026 24.5709 53.3331L25.8063 58.0245C25.9834 58.7058 26.6903 59.1072 27.3668 58.9132L31.4315 57.7476C32.0911 57.5585 32.4747 56.875 32.3041 56.2162Z" fill="#F0EFEF"/>
<path d="M38.7142 37.8013L42.9489 36.6114C43.565 36.4409 43.9318 35.8049 43.7652 35.1815L42.6988 31.1433C42.5241 30.4917 41.8439 30.1194 41.202 30.3278L37.0118 31.6941C36.4207 31.888 36.0861 32.5086 36.2406 33.1111L37.2625 36.9729C37.4323 37.6076 38.0828 37.9823 38.7142 37.8013Z" fill="#F0EFEF"/>
<path d="M40.1995 53.9275L39.0498 49.5776C38.8744 48.9019 38.1771 48.4917 37.4998 48.6615L33.443 49.6844C32.7544 49.8575 32.3345 50.5636 32.5189 51.249L33.7001 55.7302C33.8804 56.4228 34.6018 56.8322 35.2896 56.635L39.3092 55.4824C39.9874 55.294 40.3806 54.6016 40.1995 53.9275Z" fill="#F0EFEF"/>
<path d="M43.6672 38.7116L39.0516 40.0412C38.5442 40.1867 38.249 40.7106 38.3832 41.2212L39.4861 45.4077C39.6219 45.9239 40.1434 46.232 40.6613 46.1018L45.3165 44.9317C45.84 44.7998 46.1561 44.2638 46.0186 43.7419L44.8706 39.3976C44.7371 38.8685 44.1915 38.5613 43.6672 38.7116Z" fill="#F0EFEF"/>
<path d="M46.3498 39.1748L47.4 43.1566C47.573 43.8026 48.2284 44.1943 48.8759 44.0269L53.0471 42.9773C53.7075 42.8123 54.1 42.1384 53.931 41.4853L52.8387 37.3568C52.6608 36.694 51.9757 36.3047 51.3234 36.4979L47.187 37.6901C46.5515 37.8784 46.1784 38.5345 46.3498 39.1748Z" fill="#F0EFEF"/>
<path d="M32.6871 48.1075L37.3424 46.9374C37.8659 46.8056 38.182 46.2696 38.0445 45.7477L36.97 41.6813C36.8309 41.1537 36.2852 40.8465 35.7609 40.9969L31.1454 42.3265C30.638 42.4719 30.3428 42.9959 30.477 43.5065L31.5063 47.4151C31.6461 47.9241 32.1693 48.2377 32.6871 48.1075Z" fill="#F0EFEF"/>
<path d="M45.4805 46.6601L41.4237 47.683C40.7351 47.8561 40.3152 48.5622 40.4995 49.2475L41.6137 53.4734C41.794 54.1661 42.5154 54.5754 43.2032 54.3782L47.2228 53.2256C47.8937 53.0332 48.287 52.3409 48.1059 51.6667L47.0249 47.5778C46.8535 46.8948 46.1619 46.483 45.4805 46.6601Z" fill="#F0EFEF"/>
<path d="M53.5993 44.6125L49.2574 45.705C48.6477 45.8555 48.2778 46.4801 48.4411 47.0922L49.5633 51.3463C49.7266 51.9584 50.3609 52.3195 50.9698 52.1449L55.2713 50.9115C55.8633 50.7418 56.2123 50.1292 56.0538 49.534L54.9664 45.4225C54.8136 44.8257 54.1978 44.4653 53.5993 44.6125Z" fill="#F0EFEF"/>
<path d="M23.4489 42.0255L26.6616 41.1226C27.5145 40.8842 28.018 40.0016 27.7964 39.1438L27.093 36.478C26.8804 35.6726 26.0349 35.2134 25.2424 35.4711L21.711 36.6241C20.9072 36.885 20.4537 37.7289 20.6679 38.54L21.2565 40.7628C21.5032 41.7293 22.4889 42.2947 23.4489 42.0255Z" fill="#F0EFEF"/>
<path d="M25.5013 62.6818C25.3113 61.9553 24.5593 61.5242 23.8344 61.7199L22.4331 62.1095C21.37 62.4021 20.6982 63.3574 20.9351 64.2474L21.6126 66.823C21.8479 67.7073 22.8811 68.2042 23.9483 67.947L25.4657 67.579C26.1503 67.4132 26.5661 66.7144 26.3834 66.0346L25.5013 62.6818Z" fill="#F0EFEF"/>
<path d="M70.1971 48.9137L67.4379 49.6744C66.7597 49.8627 66.3608 50.5567 66.5435 51.2365L67.8178 56.0632C67.9932 56.7389 68.6775 57.1467 69.3565 56.9825L72.1247 56.3169C73.2313 56.0484 73.9409 55.0762 73.6976 54.1636L72.6037 50.0296C72.3644 49.1098 71.2828 48.6146 70.1971 48.9137Z" fill="#F0EFEF"/>
<path d="M22.0694 60.4258L23.4337 60.0346C24.144 59.8309 24.5574 59.1022 24.3706 58.3871L23.1239 53.6562C22.9371 52.941 22.2036 52.5107 21.4852 52.6862L20.0967 53.0355C19.0046 53.3121 18.3046 54.2755 18.5463 55.1823L19.6402 59.3164C19.8756 60.2434 20.9757 60.7394 22.0694 60.4258Z" fill="#F0EFEF"/>
<path d="M19.6036 51.3956L21.3393 50.9589C21.891 50.819 22.2231 50.254 22.0776 49.7039L21.1777 46.2891C21.0306 45.7333 20.4559 45.41 19.9034 45.5685L18.1686 46.072C17.1144 46.3743 16.4636 47.3175 16.6988 48.2018L17.247 50.2837C17.4823 51.168 18.5341 51.6657 19.6036 51.3956Z" fill="#F0EFEF"/>
<path d="M63.2657 23.0797L60.538 23.9717C59.9243 24.172 59.5721 24.8161 59.7386 25.4394L60.9951 30.2041C61.1713 30.8613 61.8508 31.2522 62.5048 31.0647L65.3453 30.2685C66.4068 29.9702 67.0689 29.0238 66.832 28.1338L65.7802 24.1463C65.5303 23.2113 64.3763 22.7185 63.2657 23.0797Z" fill="#F0EFEF"/>
<path d="M47.6902 55.1291L43.6592 56.2422C42.9867 56.429 42.5822 57.1246 42.7649 57.8043L43.8346 61.8538C44.01 62.5296 44.6944 62.9374 45.3733 62.7732L49.4414 61.7897C50.1373 61.6207 50.5628 60.9129 50.3769 60.2219L49.2757 56.0411C49.0841 55.3517 48.3756 54.9448 47.6902 55.1291Z" fill="#F0EFEF"/>
<path d="M65.7876 32.326L62.9929 33.1335C62.3559 33.3161 61.9843 33.9779 62.1501 34.6198L63.3459 39.1517C63.5189 39.7976 64.1742 40.1894 64.8218 40.022L67.6552 39.3071C68.7473 39.0306 69.4472 38.0672 69.2055 37.1604L68.2191 33.4225C67.9854 32.5011 66.8797 32.0068 65.7876 32.326Z" fill="#F0EFEF"/>
<path d="M68.1531 40.952L65.211 41.6919C64.5957 41.8439 64.2313 42.467 64.3946 43.0791L65.3794 46.8113C65.5427 47.4234 66.1771 47.7845 66.7859 47.6099L69.7175 46.7693C70.7717 46.467 71.4282 45.5222 71.1929 44.6379L70.5154 42.0623C70.2745 41.1796 69.2227 40.6819 68.1531 40.952Z" fill="#F0EFEF"/>
<path d="M56.4138 45.0868L57.4673 49.0799C57.6307 49.692 58.265 50.0531 58.8739 49.8786L63.1754 48.6451C63.7673 48.4754 64.1164 47.8628 63.9579 47.2676L62.9392 43.417C62.7791 42.8162 62.1689 42.4543 61.5665 42.6087L57.2246 43.7012C56.6221 43.8557 56.2522 44.4804 56.4138 45.0868Z" fill="#F0EFEF"/>
<path d="M63.5432 50.7545L59.5123 51.8677C58.8342 52.056 58.4353 52.75 58.618 53.4298L59.8235 57.9955C59.9989 58.6713 60.6833 59.079 61.3622 58.9148L65.4247 57.933C66.1206 57.764 66.5461 57.0562 66.3641 56.358L65.1271 51.6609C64.9412 50.9699 64.2327 50.5629 63.5432 50.7545Z" fill="#F0EFEF"/>
<path d="M17.6301 43.6576L19.3133 43.1871C19.8505 43.0392 20.1658 42.479 20.0235 41.9402L19.139 38.6002C18.9886 38.0332 18.3937 37.7035 17.8308 37.8893L16.0671 38.4622C15.0564 38.7886 14.449 39.7132 14.6746 40.5637L15.2026 42.5538C15.4532 43.4703 16.5404 43.9639 17.6301 43.6576Z" fill="#F0EFEF"/>
<path d="M55.6175 52.9414L51.6542 54.0351C50.9422 54.2332 50.5176 54.9651 50.706 55.6859L51.8233 59.9231C51.9988 60.5988 52.6831 61.0066 53.3621 60.8424L57.4246 59.8605C58.1204 59.6915 58.5459 58.9838 58.364 58.2855L57.1957 53.8494C57.0097 53.1584 56.3012 52.7514 55.6175 52.9414Z" fill="#F0EFEF"/>
<path d="M51.9037 27.991L53.072 32.4271C53.2482 33.0843 53.9277 33.4751 54.5817 33.2876L58.7262 32.1236C59.3705 31.945 59.7477 31.2816 59.5746 30.6357L58.3578 26.0305C58.1824 25.3547 57.4658 24.9623 56.803 25.1828L52.7071 26.516C52.0894 26.7236 51.7371 27.3676 51.9037 27.991Z" fill="#F0EFEF"/>
<path d="M54.2483 36.8974L55.3721 41.1571C55.5452 41.803 56.2005 42.1947 56.848 42.0274L61.0192 40.9777C61.6796 40.8128 62.0721 40.1389 61.9031 39.4857L60.7389 35.0851C60.561 34.4222 59.8759 34.033 59.2235 34.2261L55.0871 35.4183C54.4541 35.5937 54.0825 36.2555 54.2483 36.8974Z" fill="#F0EFEF"/>
<path d="M14.6548 35.0052L15.2474 36.3483C15.4371 36.7759 15.9118 37.0059 16.366 36.8878L16.4337 36.8684C16.9443 36.7342 17.2467 36.2143 17.1125 35.7037L16.7317 34.2693C16.5845 33.7136 15.9793 33.4113 15.4502 33.6301L15.1724 33.7463C14.6683 33.9458 14.436 34.5188 14.6548 35.0052Z" fill="#F0EFEF"/>
<path d="M21.0278 32.7931L21.6204 34.1363C21.8101 34.5639 22.2848 34.7938 22.7391 34.6758L22.8067 34.6564C23.3174 34.5222 23.6198 34.0023 23.4855 33.4917L23.1047 32.0573C22.9576 31.5015 22.3523 31.1992 21.8232 31.418L21.5454 31.5343C21.0397 31.7281 20.8074 32.3011 21.0278 32.7931Z" fill="#F0EFEF"/>
<path d="M29.0298 30.6144L29.6224 31.9576C29.8121 32.3852 30.2868 32.6151 30.741 32.4971L30.8087 32.4777C31.3193 32.3435 31.6217 31.8236 31.4875 31.313L31.1067 29.8786C30.9595 29.3228 30.3543 29.0205 29.8252 29.2393L29.5474 29.3556C29.0416 29.5494 28.8094 30.1224 29.0298 30.6144Z" fill="#F0EFEF"/>
<path d="M36.6925 28.0391L37.2851 29.3823C37.4748 29.8099 37.9496 30.0398 38.4038 29.9218L38.4715 29.9024C38.9821 29.7682 39.2845 29.2483 39.1503 28.7376L38.7695 27.3032C38.6223 26.7475 38.017 26.4452 37.488 26.664L37.2101 26.7803C36.7117 26.9781 36.4794 27.5511 36.6925 28.0391Z" fill="#F0EFEF"/>
<path d="M44.8782 25.2793L45.4708 26.6225C45.6605 27.0501 46.1352 27.28 46.5895 27.162L46.6571 27.1426C47.1677 27.0084 47.4701 26.4885 47.3359 25.9778L46.9551 24.5434C46.808 23.9877 46.2027 23.6854 45.6736 23.9042L45.3958 24.0205C44.8917 24.22 44.6651 24.7913 44.8782 25.2793Z" fill="#F0EFEF"/>
<path d="M52.8813 22.4937L53.4739 23.8369C53.6636 24.2645 54.1384 24.4944 54.5926 24.3764L54.6602 24.357C55.1709 24.2227 55.4733 23.7029 55.3391 23.1922L54.9583 21.7578C54.8111 21.2021 54.2058 20.8998 53.6768 21.1186L53.3989 21.2349C52.8948 21.4343 52.6626 22.0073 52.8813 22.4937Z" fill="#F0EFEF"/>
<path d="M59.9739 20.3018L60.5665 21.6449C60.7562 22.0725 61.2309 22.3025 61.6852 22.1844L61.7528 22.165C62.2634 22.0308 62.5658 21.5109 62.4316 21.0003L62.0508 19.5659C61.9037 19.0102 61.2984 18.7079 60.7693 18.9267L60.4915 19.0429C59.9858 19.2368 59.7591 19.8082 59.9739 20.3018Z" fill="#F0EFEF"/>
<path d="M53.2119 40.0497C53.1077 39.7502 52.7564 39.7166 52.577 39.9633C52.0717 40.6695 52.0307 41.5477 51.9244 42.3896C51.7972 43.3717 51.687 44.349 51.6226 45.3376C51.5544 46.376 51.5417 47.4169 51.6014 48.4552C50.8343 47.4184 50.002 46.4307 49.0506 45.5382C48.799 45.2992 48.3683 45.6057 48.5555 45.9181C49.6738 47.7328 50.9088 49.4653 52.0021 51.2994C52.3886 51.9451 53.2945 51.5084 53.1754 50.8165C52.8417 48.9293 52.7827 47.0427 52.9178 45.1309C52.9806 44.2221 53.0805 43.3149 53.1988 42.4085C53.3036 41.6036 53.4849 40.8317 53.2119 40.0497Z" fill="url(#paint0_linear_5996_19004)"/>
<path d="M54.5351 41.2566C53.935 41.3128 53.9366 42.1055 54.5256 42.1807C58.4235 42.7103 60.1047 46.8712 58.3525 50.1862C57.5411 51.7185 56.276 53.094 55.0511 54.3116C53.8125 55.5454 52.3441 56.6375 50.5874 56.9582C46.5094 57.6944 44.818 53.8171 45.1095 50.3656C45.3899 47.0455 47.1682 44.0341 49.8393 42.0723C50.1823 41.8215 49.8546 41.2321 49.5004 41.4862C46.9863 43.2931 45.1649 45.963 44.4315 48.9798C43.7566 51.7541 43.9059 55.3598 46.3744 57.245C48.9292 59.1969 52.4375 58.2398 54.7728 56.4475C57.344 54.4778 60.3475 51.3347 60.6197 47.9437C60.9007 44.3916 58.2889 40.9002 54.5351 41.2566Z" fill="url(#paint1_linear_5996_19004)"/>
<path d="M43.0252 41.262C42.7472 40.3351 42.5037 39.3372 41.8827 38.5757C41.6762 38.3237 41.3139 38.5496 41.2876 38.8195C41.2135 39.6888 41.5334 40.5489 41.7654 41.3792C41.8729 41.7755 42.0344 42.2112 42.179 42.6517C41.3408 41.4095 40.1931 39.9387 38.6051 39.7413C36.9784 39.5366 35.5035 40.5635 34.3267 41.566C31.5609 43.921 29.8812 47.2335 27.421 49.867C25.941 51.4506 23.6215 53.0003 21.8102 50.9389C20.5263 49.4828 20.2614 47.0695 20.3684 45.2085C20.5712 41.6178 22.3733 38.264 25.1069 35.967C25.3033 35.8009 25.038 35.4499 24.8254 35.6024C22.0231 37.5956 20.2392 40.6514 19.718 44.0466C19.2864 46.861 19.4657 51.5502 22.6127 52.8015C26.0427 54.1669 28.9613 49.9622 30.6968 47.6525C31.9246 46.0192 33.0992 44.3279 34.5922 42.9175C35.4317 42.1216 36.4571 41.2296 37.617 40.9764C39.219 40.6268 40.3016 42.1895 41.0422 43.3681C41.4125 43.9575 42.2508 43.6256 42.3196 43.0995C42.3819 43.3379 42.4353 43.5666 42.4645 43.7962C41.2491 44.0898 39.7743 43.4145 38.6858 44.172C38.5272 44.2784 38.5387 44.5314 38.737 44.5844C39.9972 44.9368 42.0487 45.3675 43.2937 44.858C43.5675 44.7489 43.7614 44.553 43.7708 44.2452C43.8021 43.2906 43.2983 42.1721 43.0252 41.262Z" fill="url(#paint2_linear_5996_19004)"/>
<path d="M16.1803 31.9883C16.9027 31.4136 17.0225 30.3621 16.4478 29.6396C15.8732 28.9172 14.8216 28.7974 14.0991 29.372C13.3767 29.9467 13.2569 30.9983 13.8316 31.7207C14.4062 32.4432 15.4578 32.563 16.1803 31.9883Z" fill="#3D3C3C"/>
<path d="M29.7107 27.5977C30.1582 26.7904 29.8665 25.7731 29.0591 25.3255C28.2518 24.878 27.2344 25.1697 26.7869 25.9771C26.3394 26.7845 26.6311 27.8018 27.4385 28.2493C28.2458 28.6968 29.2631 28.4051 29.7107 27.5977Z" fill="#3D3C3C"/>
<path d="M42.8611 23.362C43.3086 22.5547 43.0169 21.5373 42.2095 21.0898C41.4021 20.6423 40.3848 20.934 39.9373 21.7414C39.4898 22.5487 39.7815 23.566 40.5888 24.0136C41.3962 24.4611 42.4135 24.1694 42.8611 23.362Z" fill="#3D3C3C"/>
<path d="M54.8289 19.7698C55.7163 19.5154 56.2294 18.5897 55.9749 17.7024C55.7205 16.815 54.7949 16.3019 53.9075 16.5564C53.0201 16.8108 52.5071 17.7364 52.7615 18.6238C53.016 19.5112 53.9416 20.0243 54.8289 19.7698Z" fill="#3D3C3C"/>
<path d="M52.395 6.69713C49.8627 8.05777 52.1549 15.0941 53.2008 17.9118C53.4455 18.5738 54.1596 18.9365 54.8418 18.7409C55.0335 18.6859 55.1856 18.5569 55.2749 18.3787C55.3585 18.2022 55.3671 17.9984 55.2953 17.8116C54.4385 15.6961 52.1432 9.56367 54.0306 8.65639C54.0306 8.65639 55.3842 7.9937 56.4131 10.6882L57.9578 10.2453C57.9594 10.2509 55.5771 4.98543 52.395 6.69713Z" fill="#F9F9F9" stroke="#3D3C3C" stroke-width="0.5"/>
<path d="M39.3543 10.8327C36.8236 12.1989 39.1141 19.2296 40.1617 22.053C40.4064 22.715 41.1205 23.0776 41.8027 22.882C41.9944 22.8271 42.1465 22.698 42.2357 22.5199C42.3193 22.3434 42.328 22.1396 42.2561 21.9527C41.3994 19.8373 39.1024 13.6992 40.9899 12.7919C40.9899 12.7919 42.3596 12.1856 43.3707 14.8181L44.9154 14.3752C44.9171 14.3808 42.5347 9.11531 39.3543 10.8327Z" fill="#F9F9F9" stroke="#3D3C3C" stroke-width="0.5"/>
<path d="M26.3113 14.9694C23.7806 16.3357 26.0712 23.3664 27.1187 26.1898C27.3635 26.8518 28.0792 27.22 28.7613 27.0244C28.953 26.9695 29.1052 26.8404 29.1944 26.6623C29.278 26.4858 29.2867 26.282 29.2148 26.0952C28.3581 23.9797 26.0595 17.836 27.9485 16.9343C27.9485 16.9343 29.3296 16.3675 30.3439 19.0113L31.8725 18.512C31.8725 18.512 29.4918 13.2521 26.3113 14.9694Z" fill="#F9F9F9" stroke="#3D3C3C" stroke-width="0.5"/>
<path d="M13.2876 19.1618C10.7569 20.5281 13.0491 27.5644 14.0967 30.3878C14.3414 31.0498 15.0571 31.418 15.7393 31.2224C15.9309 31.1675 16.0831 31.0384 16.1723 30.8603C16.2559 30.6838 16.2646 30.48 16.1944 30.2988C15.3376 28.1833 13.0374 22.034 14.9265 21.1323C14.9265 21.1323 16.293 20.5147 17.3041 23.1473L18.8488 22.7043C18.8472 22.6987 16.4697 17.4501 13.2876 19.1618Z" fill="#F9F9F9" stroke="#3D3C3C" stroke-width="0.5"/>
<defs>
<linearGradient id="paint0_linear_5996_19004" x1="54.0983" y1="43.9997" x2="48.46" y2="45.6306" gradientUnits="userSpaceOnUse">
<stop stop-color="#E17139"/>
<stop offset="1" stop-color="#CD4B3A"/>
</linearGradient>
<linearGradient id="paint1_linear_5996_19004" x1="59.5641" y1="45.2527" x2="43.1961" y2="50.0276" gradientUnits="userSpaceOnUse">
<stop stop-color="#E17139"/>
<stop offset="1" stop-color="#CD4B3A"/>
</linearGradient>
<linearGradient id="paint2_linear_5996_19004" x1="41.0606" y1="37.6839" x2="18.4613" y2="44.3177" gradientUnits="userSpaceOnUse">
<stop stop-color="#E17139"/>
<stop offset="1" stop-color="#CD4B3A"/>
</linearGradient>
</defs>
</svg>
