<svg width="288" height="314" viewBox="0 0 288 314" fill="none" xmlns="http://www.w3.org/2000/svg">
<g clip-path="url(#clip0_5996_18827)">
<g opacity="0.1">
<path d="M255.092 91.1249H247.305L247.305 323.122H207.992V91.1249H200.205L227.649 63.6813L255.092 91.1249Z" fill="#BDBDBD"/>
</g>
<path d="M192.293 84.0167H185.108L211.949 57.1142L238.79 84.0167H231.606H231.356V84.2667L231.356 322.372H192.543V84.2667V84.0167H192.293Z" fill="white" stroke="#949494" stroke-width="0.5"/>
<g opacity="0.1">
<path d="M223.694 250.302H215.907V379.796H176.594V250.302H168.807L196.25 222.796L223.694 250.302Z" fill="#BDBDBD"/>
</g>
<path d="M160.895 243.069H153.711L180.551 216.229L207.391 243.069H200.207H199.957V243.319V380.475H161.145V243.319V243.069H160.895Z" fill="white" stroke="#949494" stroke-width="0.5"/>
<g opacity="0.1">
<path d="M192.293 158.313H184.506V329.447H145.193V158.313H137.406L164.85 129.6L192.293 158.313Z" fill="#BDBDBD"/>
</g>
<path d="M129.494 149.873H122.311L149.151 123.033L175.991 149.873H168.807H168.557V150.123V329.197H129.744V150.123V149.873H129.494Z" fill="white" stroke="#949494" stroke-width="0.5"/>
<path opacity="0.1" d="M155.809 256.703H148.022V425.509H108.709V256.703H100.922L128.365 229.259L155.809 256.703Z" fill="#BDBDBD"/>
<path d="M98.0938 252.559H90.9092L117.75 225.657L144.591 252.559H137.407H137.157V252.809V409.559H98.3438V252.809V252.559H98.0938Z" fill="white" stroke="#949494" stroke-width="0.5"/>
<g opacity="0.1">
<path d="M129.493 229.429H121.705V319.735H82.3927V229.429H74.6055L102.049 201.985L129.493 229.429Z" fill="#BDBDBD"/>
</g>
<path d="M66.6934 222.321H59.5088L86.3498 195.418L113.191 222.321H106.006H105.756V222.571V320.414H66.9434V222.571V222.321H66.6934Z" fill="white" stroke="#949494" stroke-width="0.5"/>
<path opacity="0.1" d="M94.2935 278.453H86.5063V407.947H47.1935V278.453H39.4062L66.8499 250.947L94.2935 278.453Z" fill="#B7B0B0"/>
<path d="M33.9415 274.215H26.7579L53.5979 247.375L80.438 274.215H73.2543H73.0043V274.465V411.622H34.1915V274.465V274.215H33.9415Z" fill="white" stroke="#949494" stroke-width="0.5"/>
</g>
<defs>
<clipPath id="clip0_5996_18827">
<rect width="314" height="314" fill="white"/>
</clipPath>
</defs>
</svg>
