<svg width="229" height="257" viewBox="0 0 229 257" fill="none" xmlns="http://www.w3.org/2000/svg">
<g clip-path="url(#clip0_6063_4705)">
<g opacity="0.1">
<path d="M229.092 34.1248H221.305L221.305 266.122H181.992V34.1248H174.205L201.649 6.68115L229.092 34.1248Z" fill="#BDBDBD"/>
</g>
<path d="M166.293 27.0167H159.108L185.949 0.114212L212.79 27.0167H205.606H205.356V27.2667L205.356 265.372H166.543V27.2667V27.0167H166.293Z" fill="white" stroke="#949494" stroke-width="0.5"/>
<g opacity="0.1">
<path d="M197.694 193.303H189.907V322.796H150.594V193.303H142.807L170.25 165.796L197.694 193.303Z" fill="#BDBDBD"/>
</g>
<path d="M134.895 186.069H127.711L154.551 159.229L181.391 186.069H174.207H173.957V186.319V323.475H135.145V186.319V186.069H134.895Z" fill="white" stroke="#949494" stroke-width="0.5"/>
<g opacity="0.1">
<path d="M166.293 101.313H158.506V272.447H119.193V101.313H111.406L138.85 72.6001L166.293 101.313Z" fill="#BDBDBD"/>
</g>
<path d="M103.494 92.8728H96.3106L123.151 66.0328L149.991 92.8728H142.807H142.557V93.1228V272.197H103.744V93.1228V92.8728H103.494Z" fill="white" stroke="#949494" stroke-width="0.5"/>
<path opacity="0.1" d="M129.809 199.703H122.022V368.509H82.7091V199.703H74.9219L102.365 172.259L129.809 199.703Z" fill="#BDBDBD"/>
<path d="M72.0938 195.559H64.9092L91.7502 168.657L118.591 195.559H111.407H111.157V195.809V352.559H72.3438V195.809V195.559H72.0938Z" fill="white" stroke="#949494" stroke-width="0.5"/>
<g opacity="0.1">
<path d="M103.493 172.429H95.7055V262.735H56.3927V172.429H48.6055L76.0491 144.985L103.493 172.429Z" fill="#BDBDBD"/>
</g>
<path d="M40.6934 165.321H33.5088L60.3498 138.418L87.1909 165.321H80.0063H79.7563V165.571V263.414H40.9434V165.571V165.321H40.6934Z" fill="white" stroke="#949494" stroke-width="0.5"/>
<path opacity="0.1" d="M68.2935 221.453H60.5063V350.947H21.1935V221.453H13.4062L40.8499 193.947L68.2935 221.453Z" fill="#B7B0B0"/>
<path d="M7.9415 217.215H0.75785L27.5979 190.375L54.438 217.215H47.2543H47.0043V217.465V354.622H8.1915V217.465V217.215H7.9415Z" fill="white" stroke="#949494" stroke-width="0.5"/>
</g>
<defs>
<clipPath id="clip0_6063_4705">
<rect width="229" height="257" fill="white"/>
</clipPath>
</defs>
</svg>
